<svg width="19" height="20" viewBox="0 0 19 20" fill="none" xmlns="http://www.w3.org/2000/svg">
<path d="M0.865234 1.64453V0.894531C0.451021 0.894531 0.115234 1.23032 0.115234 1.64453L0.865234 1.64453ZM7.86523 1.64453H8.61523C8.61523 1.23032 8.27945 0.894531 7.86523 0.894531V1.64453ZM7.86523 8.64453V9.39453C8.27945 9.39453 8.61523 9.05874 8.61523 8.64453H7.86523ZM0.865234 8.64453H0.115234C0.115234 9.05874 0.451021 9.39453 0.865234 9.39453L0.865234 8.64453ZM0.865234 11.6445V10.8945C0.451021 10.8945 0.115234 11.2303 0.115234 11.6445H0.865234ZM7.86523 11.6445H8.61523C8.61523 11.2303 8.27945 10.8945 7.86523 10.8945V11.6445ZM7.86523 18.6445V19.3945C8.27945 19.3945 8.61523 19.0587 8.61523 18.6445H7.86523ZM0.865234 18.6445H0.115234C0.115234 19.0587 0.451021 19.3945 0.865234 19.3945L0.865234 18.6445ZM10.8652 1.64453V0.894531C10.451 0.894531 10.1152 1.23032 10.1152 1.64453L10.8652 1.64453ZM17.8652 1.64453H18.6152C18.6152 1.23032 18.2794 0.894531 17.8652 0.894531V1.64453ZM17.8652 8.64453V9.39453C18.2794 9.39453 18.6152 9.05874 18.6152 8.64453H17.8652ZM10.8652 8.64453H10.1152C10.1152 9.05874 10.451 9.39453 10.8652 9.39453V8.64453ZM10.8652 11.6445V10.8945C10.451 10.8945 10.1152 11.2303 10.1152 11.6445H10.8652ZM17.8652 11.6445H18.6152C18.6152 11.2303 18.2794 10.8945 17.8652 10.8945V11.6445ZM17.8652 18.6445V19.3945C18.2794 19.3945 18.6152 19.0587 18.6152 18.6445H17.8652ZM10.8652 18.6445H10.1152C10.1152 19.0587 10.451 19.3945 10.8652 19.3945V18.6445ZM0.865234 2.39453H7.86523V0.894531H0.865234V2.39453ZM7.11523 1.64453V8.64453H8.61523V1.64453H7.11523ZM7.86523 7.89453H0.865234V9.39453H7.86523V7.89453ZM1.61523 8.64453V1.64453H0.115234V8.64453H1.61523ZM0.865234 12.3945H7.86523V10.8945H0.865234V12.3945ZM7.11523 11.6445V18.6445H8.61523V11.6445H7.11523ZM7.86523 17.8945H0.865234V19.3945H7.86523V17.8945ZM1.61523 18.6445V11.6445H0.115234V18.6445H1.61523ZM10.8652 2.39453H17.8652V0.894531H10.8652V2.39453ZM17.1152 1.64453V8.64453H18.6152V1.64453H17.1152ZM17.8652 7.89453H10.8652V9.39453H17.8652V7.89453ZM11.6152 8.64453V1.64453H10.1152V8.64453H11.6152ZM10.8652 12.3945H17.8652V10.8945H10.8652V12.3945ZM17.1152 11.6445V18.6445H18.6152V11.6445H17.1152ZM17.8652 17.8945H10.8652V19.3945H17.8652V17.8945ZM11.6152 18.6445V11.6445H10.1152V18.6445H11.6152Z" fill="white"/>
</svg>
