<svg width="21" height="18" viewBox="0 0 21 18" fill="none" xmlns="http://www.w3.org/2000/svg">
<path d="M9.12521 2.52524L8.58532 3.04585V3.04585L9.12521 2.52524ZM10.3652 3.8112L9.82535 4.3318C9.96671 4.47839 10.1616 4.5612 10.3652 4.5612C10.5689 4.5612 10.7638 4.47839 10.9051 4.3318L10.3652 3.8112ZM11.6053 2.52524L11.0654 2.00464V2.00464L11.6053 2.52524ZM18.0338 9.19191L17.4939 8.67131L18.0338 9.19191ZM2.69663 9.19191L2.15675 9.71251H2.15675L2.69663 9.19191ZM10.3652 17.1445L9.82535 17.6651C9.96671 17.8117 10.1616 17.8945 10.3652 17.8945C10.5689 17.8945 10.7638 17.8117 10.9051 17.6651L10.3652 17.1445ZM6.36526 9.64453V10.3945C6.64934 10.3945 6.90904 10.234 7.03608 9.97994L6.36526 9.64453ZM7.36526 7.64453L8.03608 7.30912C7.90904 7.05503 7.64934 6.89453 7.36526 6.89453C7.08118 6.89453 6.82148 7.05503 6.69444 7.30912L7.36526 7.64453ZM9.36526 11.6445L8.69444 11.9799C8.82337 12.2378 9.08871 12.3989 9.37698 12.3944C9.66524 12.3899 9.92541 12.2206 10.0462 11.9588L9.36526 11.6445ZM12.3653 5.14453L13.0506 4.83993C12.931 4.57084 12.665 4.39664 12.3706 4.39455C12.0761 4.39246 11.8077 4.56288 11.6843 4.83024L12.3653 5.14453ZM14.3653 9.64453L13.6799 9.94913C13.8003 10.22 14.0689 10.3945 14.3653 10.3945V9.64453ZM8.58532 3.04585L9.82535 4.3318L10.9051 3.2906L9.66509 2.00464L8.58532 3.04585ZM10.9051 4.3318L12.1451 3.04584L11.0654 2.00464L9.82535 3.2906L10.9051 4.3318ZM14.8195 0.394531C13.4061 0.394531 12.0562 0.977086 11.0654 2.00464L12.1451 3.04584C12.8593 2.30529 13.8219 1.89453 14.8195 1.89453V0.394531ZM18.6152 5.85858C18.6152 6.91853 18.209 7.92983 17.4939 8.67131L18.5737 9.71251C19.5637 8.68588 20.1152 7.29911 20.1152 5.85858H18.6152ZM20.1152 5.85858C20.1152 2.86681 17.7697 0.394531 14.8195 0.394531V1.89453C16.8904 1.89453 18.6152 3.64335 18.6152 5.85858H20.1152ZM5.91092 1.89453C6.90862 1.89453 7.87122 2.30529 8.58532 3.04585L9.66509 2.00464C8.67423 0.977087 7.32441 0.394531 5.91092 0.394531V1.89453ZM2.11523 5.85858C2.11523 3.64335 3.8401 1.89453 5.91092 1.89453V0.394531C2.96072 0.394531 0.615234 2.86681 0.615234 5.85858H2.11523ZM3.23652 8.67131C2.52152 7.92982 2.11523 6.91853 2.11523 5.85858H0.615234C0.615234 7.29911 1.16679 8.68588 2.15675 9.71251L3.23652 8.67131ZM10.9051 16.6239L3.67297 9.12393L2.59321 10.1651L9.82535 17.6651L10.9051 16.6239ZM3.67297 9.12393L3.23652 8.67131L2.15675 9.71251L2.59321 10.1651L3.67297 9.12393ZM17.4939 8.67131L17.0575 9.12393L18.1373 10.1651L18.5737 9.71251L17.4939 8.67131ZM17.0575 9.12393L9.82535 16.6239L10.9051 17.6651L18.1373 10.1651L17.0575 9.12393ZM7.03608 9.97994L8.03608 7.97994L6.69444 7.30912L5.69444 9.30912L7.03608 9.97994ZM6.69444 7.97994L8.69444 11.9799L10.0361 11.3091L8.03608 7.30912L6.69444 7.97994ZM10.0462 11.9588L13.0462 5.45883L11.6843 4.83024L8.68429 11.3302L10.0462 11.9588ZM11.6799 5.44914L13.6799 9.94913L15.0506 9.33993L13.0506 4.83993L11.6799 5.44914ZM6.36526 8.89453H3.13309V10.3945H6.36526V8.89453ZM14.3653 10.3945H17.5974V8.89453H14.3653V10.3945Z" fill="white"/>
</svg>
