<svg width="19" height="19" viewBox="0 0 19 19" fill="none" xmlns="http://www.w3.org/2000/svg">
<path d="M2.36523 18.2247H1.61523C1.61523 18.6389 1.95102 18.9747 2.36523 18.9747V18.2247ZM16.3652 18.2247V18.9747C16.7794 18.9747 17.1152 18.6389 17.1152 18.2247H16.3652ZM1.36523 8.22473H0.615234C0.615234 8.63895 0.951021 8.97473 1.36523 8.97473L1.36523 8.22473ZM1.36523 5.22473V4.47473C0.951021 4.47473 0.615234 4.81052 0.615234 5.22473H1.36523ZM17.3652 5.22473H18.1152C18.1152 4.81052 17.7794 4.47473 17.3652 4.47473V5.22473ZM17.3652 8.22473V8.97473C17.7794 8.97473 18.1152 8.63895 18.1152 8.22473H17.3652ZM9.36523 5.22473L9.31535 5.97307C9.34857 5.97529 9.3819 5.97529 9.41512 5.97307L9.36523 5.22473ZM2.36523 18.9747H16.3652V17.4747H2.36523V18.9747ZM17.1152 18.2247V8.22473H15.6152V18.2247H17.1152ZM16.3652 7.47473H2.36523V8.97473H16.3652V7.47473ZM1.61523 8.22473V18.2247H3.11523V8.22473H1.61523ZM2.36523 7.47473H1.36523V8.97473H2.36523V7.47473ZM2.11523 8.22473V5.22473H0.615234V8.22473H2.11523ZM1.36523 5.97473H17.3652V4.47473H1.36523V5.97473ZM16.6152 5.22473V8.22473H18.1152V5.22473H16.6152ZM17.3652 7.47473H16.3652V8.97473H17.3652V7.47473ZM10.048 5.53508C10.4533 4.64339 11.1586 3.36699 11.958 2.56755C12.3604 2.16516 12.7127 1.95904 12.9925 1.90776C13.213 1.86736 13.4827 1.90301 13.8348 2.25506L14.8954 1.1944C14.2475 0.546455 13.4964 0.290439 12.7221 0.432328C12.0072 0.563341 11.3908 1.01347 10.8973 1.50691C9.90513 2.49914 9.11048 3.97274 8.68246 4.91438L10.048 5.53508ZM13.8348 2.25506C14.0242 2.44448 14.0857 2.57596 14.1045 2.64351C14.1192 2.69641 14.1165 2.73582 14.0926 2.79017C14.0218 2.95117 13.77 3.21017 13.2126 3.49378C12.1416 4.03869 10.4982 4.39753 9.31535 4.47639L9.41512 5.97307C10.7322 5.88526 12.5888 5.49411 13.8928 4.83069C14.5228 4.51013 15.1772 4.05038 15.4658 3.39366C15.6216 3.03917 15.6618 2.64498 15.5496 2.2415C15.4414 1.85267 15.206 1.50499 14.8954 1.1944L13.8348 2.25506ZM10.048 4.91438C9.61998 3.97273 8.82529 2.49913 7.83306 1.5069C7.33962 1.01346 6.72316 0.563338 6.00822 0.432328C5.23392 0.290441 4.48284 0.54645 3.83489 1.1944L4.89555 2.25506C5.2476 1.90301 5.51736 1.86736 5.73785 1.90776C6.0177 1.95904 6.37 2.16517 6.7724 2.56756C7.57184 3.367 8.27715 4.6434 8.68246 5.53508L10.048 4.91438ZM3.83489 1.1944C3.52431 1.50499 3.2889 1.85268 3.18074 2.24151C3.0685 2.645 3.10875 3.03919 3.26455 3.39368C3.55316 4.05039 4.20758 4.51013 4.83764 4.83069C6.1416 5.49411 7.99825 5.88526 9.31535 5.97307L9.41512 4.47639C8.23222 4.39753 6.58886 4.03869 5.51782 3.49377C4.96038 3.21016 4.70853 2.95116 4.63777 2.79016C4.61388 2.7358 4.61116 2.69639 4.62587 2.6435C4.64466 2.57595 4.70614 2.44448 4.89555 2.25506L3.83489 1.1944Z" fill="white"/>
</svg>
