<svg width="21" height="20" viewBox="0 0 21 20" fill="none" xmlns="http://www.w3.org/2000/svg">
<path d="M11.1152 7.14453C11.1152 6.73032 10.7794 6.39453 10.3652 6.39453C9.95102 6.39453 9.61523 6.73032 9.61523 7.14453H11.1152ZM10.3652 11.1445H9.61523C9.61523 11.3434 9.69425 11.5342 9.8349 11.6749L10.3652 11.1445ZM11.8349 13.6749C12.1278 13.9678 12.6027 13.9678 12.8956 13.6749C13.1885 13.382 13.1885 12.9071 12.8956 12.6142L11.8349 13.6749ZM16.8956 0.614201C16.6027 0.321308 16.1278 0.321308 15.8349 0.614201C15.542 0.907094 15.542 1.38197 15.8349 1.67486L16.8956 0.614201ZM18.8349 4.67486C19.1278 4.96775 19.6027 4.96775 19.8956 4.67486C20.1885 4.38197 20.1885 3.90709 19.8956 3.6142L18.8349 4.67486ZM0.834904 3.6142C0.542011 3.90709 0.542011 4.38197 0.834904 4.67486C1.1278 4.96775 1.60267 4.96775 1.89556 4.67486L0.834904 3.6142ZM4.89556 1.67486C5.18846 1.38197 5.18846 0.907094 4.89556 0.614201C4.60267 0.321308 4.1278 0.321308 3.8349 0.614201L4.89556 1.67486ZM9.61523 7.14453V11.1445H11.1152V7.14453H9.61523ZM9.8349 11.6749L11.8349 13.6749L12.8956 12.6142L10.8956 10.6142L9.8349 11.6749ZM17.6152 11.1445C17.6152 15.1486 14.3693 18.3945 10.3652 18.3945V19.8945C15.1977 19.8945 19.1152 15.977 19.1152 11.1445H17.6152ZM10.3652 18.3945C6.36117 18.3945 3.11523 15.1486 3.11523 11.1445H1.61523C1.61523 15.977 5.53274 19.8945 10.3652 19.8945V18.3945ZM3.11523 11.1445C3.11523 7.14047 6.36117 3.89453 10.3652 3.89453V2.39453C5.53274 2.39453 1.61523 6.31204 1.61523 11.1445H3.11523ZM10.3652 3.89453C14.3693 3.89453 17.6152 7.14047 17.6152 11.1445H19.1152C19.1152 6.31204 15.1977 2.39453 10.3652 2.39453V3.89453ZM15.8349 1.67486L18.8349 4.67486L19.8956 3.6142L16.8956 0.614201L15.8349 1.67486ZM1.89556 4.67486L4.89556 1.67486L3.8349 0.614201L0.834904 3.6142L1.89556 4.67486Z" fill="white"/>
</svg>
