<svg width="32" height="33" viewBox="0 0 32 33" fill="none" xmlns="http://www.w3.org/2000/svg">
<mask id="path-1-outside-1_230_11443" maskUnits="userSpaceOnUse" x="17.0898" y="1.60156" width="15" height="18" fill="black">
<rect fill="white" x="17.0898" y="1.60156" width="15" height="18"/>
<path d="M23.2921 17.4625C25.8083 13.881 28.4659 9.03169 29.1357 3.85058C29.1408 3.80477 29.1315 3.75853 29.1092 3.71813C29.0868 3.67773 29.0524 3.64512 29.0107 3.62474C28.969 3.60435 28.922 3.59717 28.876 3.60417C28.83 3.61117 28.7873 3.63201 28.7537 3.66387L19.0898 13.2376"/>
</mask>
<path d="M21.6556 16.3128C21.0206 17.2166 21.2385 18.464 22.1423 19.099C23.0461 19.734 24.2936 19.5161 24.9286 18.6123L21.6556 16.3128ZM29.1357 3.85058L31.1192 4.107L31.1216 4.08876L31.1236 4.07047L29.1357 3.85058ZM28.7537 3.66387L27.3778 2.21237L27.3618 2.22753L27.3461 2.24305L28.7537 3.66387ZM17.6823 11.8168C16.8976 12.5942 16.8916 13.8605 17.669 14.6452C18.4464 15.4299 19.7127 15.4358 20.4974 14.6585L17.6823 11.8168ZM24.9286 18.6123C27.5229 14.9196 30.389 9.75522 31.1192 4.107L27.1522 3.59415C26.5428 8.30817 24.0937 12.8425 21.6556 16.3128L24.9286 18.6123ZM31.1236 4.07047C31.1743 3.61245 31.0812 3.15103 30.8589 2.74941L27.3594 4.68685C27.1818 4.36603 27.1073 3.9971 27.1479 3.63068L31.1236 4.07047ZM30.8589 2.74941C30.6367 2.3481 30.2971 2.02737 29.8889 1.82786L28.1325 5.42161C27.8077 5.26288 27.5369 5.00736 27.3594 4.68685L30.8589 2.74941ZM29.8889 1.82786C29.481 1.62848 29.0224 1.55881 28.5749 1.62696L29.1771 5.58137C28.8215 5.63553 28.457 5.58022 28.1325 5.42161L29.8889 1.82786ZM28.5749 1.62696C28.1272 1.69514 27.709 1.89843 27.3778 2.21237L30.1296 5.11537C29.8657 5.3656 29.5328 5.52721 29.1771 5.58137L28.5749 1.62696ZM27.3461 2.24305L17.6823 11.8168L20.4974 14.6585L30.1613 5.08469L27.3461 2.24305Z" fill="#BD2F38" mask="url(#path-1-outside-1_230_11443)"/>
<mask id="path-3-outside-2_230_11443" maskUnits="userSpaceOnUse" x="2.64844" y="16.9297" width="18" height="16" fill="black">
<rect fill="white" x="2.64844" y="16.9297" width="18" height="16"/>
<path d="M13.5128 18.9297L5.17449 27.1902C5.00778 27.3543 4.87548 27.5495 4.7852 27.7645C4.69492 27.9795 4.64844 28.2101 4.64844 28.4429C4.64844 28.6758 4.69492 28.9063 4.7852 29.1213C4.87548 29.3363 5.00778 29.5315 5.17449 29.6956C5.34018 29.8608 5.5372 29.9918 5.75421 30.0813C5.97122 30.1707 6.20394 30.2168 6.43899 30.2168C6.67403 30.2168 6.90675 30.1707 7.12376 30.0813C7.34077 29.9918 7.53779 29.8608 7.70348 29.6956L15.2904 22.1794L16.8478 23.721C16.9367 23.8093 17.0426 23.8791 17.1592 23.9261C17.2759 23.9732 17.4008 23.9965 17.5268 23.9947C17.6527 23.9929 17.7769 23.9661 17.8922 23.9159C18.0074 23.8656 18.1113 23.7929 18.1976 23.7021"/>
</mask>
<path d="M14.9203 20.3505C15.705 19.5731 15.711 18.3068 14.9336 17.5221C14.1562 16.7374 12.8899 16.7315 12.1052 17.5089L14.9203 20.3505ZM5.17449 27.1902L6.57768 28.6154L6.58207 28.611L5.17449 27.1902ZM7.70348 29.6956L6.2959 28.2748L6.29152 28.2791L7.70348 29.6956ZM15.2904 22.1794L16.6974 20.758L15.2899 19.3647L13.8829 20.7586L15.2904 22.1794ZM16.8478 23.721L18.2578 22.3026L18.2548 22.2996L16.8478 23.721ZM19.6472 25.08C20.4082 24.2794 20.3761 23.0135 19.5756 22.2525C18.775 21.4915 17.5091 21.5235 16.748 22.3241L19.6472 25.08ZM12.1052 17.5089L3.76692 25.7694L6.58207 28.611L14.9203 20.3505L12.1052 17.5089ZM3.77131 25.765C3.4167 26.1142 3.13427 26.5304 2.94119 26.9901L6.6292 28.5389C6.61669 28.5687 6.59886 28.5945 6.57768 28.6154L3.77131 25.765ZM2.94119 26.9901C2.7481 27.45 2.64844 27.9437 2.64844 28.4429H6.64844C6.64844 28.4764 6.64173 28.509 6.6292 28.5389L2.94119 26.9901ZM2.64844 28.4429C2.64844 28.9421 2.7481 29.4358 2.94119 29.8957L6.6292 28.3469C6.64174 28.3768 6.64844 28.4094 6.64844 28.4429H2.64844ZM2.94119 29.8957C3.13428 30.3555 3.41672 30.7716 3.77131 31.1208L6.57768 28.2704C6.59885 28.2913 6.61668 28.3171 6.6292 28.3469L2.94119 29.8957ZM3.76254 31.1121C4.11494 31.4633 4.53297 31.7412 4.99211 31.9304L6.51631 28.2322C6.54143 28.2425 6.56542 28.2582 6.58645 28.2791L3.76254 31.1121ZM4.99211 31.9304C5.45123 32.1196 5.9429 32.2168 6.43899 32.2168V28.2168C6.46499 28.2168 6.49122 28.2218 6.51631 28.2322L4.99211 31.9304ZM6.43899 32.2168C6.93508 32.2168 7.42674 32.1196 7.88586 31.9304L6.36166 28.2322C6.38675 28.2218 6.41298 28.2168 6.43899 28.2168V32.2168ZM7.88586 31.9304C8.345 31.7412 8.76303 31.4633 9.11543 31.1121L6.29152 28.2791C6.31255 28.2582 6.33654 28.2425 6.36166 28.2322L7.88586 31.9304ZM9.11105 31.1164L16.698 23.6002L13.8829 20.7586L6.2959 28.2748L9.11105 31.1164ZM13.8834 23.6008L15.4408 25.1424L18.2548 22.2996L16.6974 20.758L13.8834 23.6008ZM15.4378 25.1394C15.7167 25.4166 16.048 25.6345 16.4114 25.7811L17.907 22.0712C18.0372 22.1237 18.1567 22.202 18.2578 22.3026L15.4378 25.1394ZM16.4114 25.7811C16.7748 25.9276 17.1636 26 17.5548 25.9945L17.4987 21.9949C17.6381 21.9929 17.7769 22.0187 17.907 22.0712L16.4114 25.7811ZM17.5548 25.9945C17.946 25.989 18.3327 25.9057 18.6918 25.749L17.0925 22.0827C17.2212 22.0265 17.3593 21.9969 17.4987 21.9949L17.5548 25.9945ZM18.6918 25.749C19.051 25.5923 19.3761 25.3652 19.6472 25.08L16.748 22.3241C16.8465 22.2206 16.9638 22.1388 17.0925 22.0827L18.6918 25.749Z" fill="#BD2F38" mask="url(#path-3-outside-2_230_11443)"/>
<mask id="path-5-outside-3_230_11443" maskUnits="userSpaceOnUse" x="0" y="0" width="32" height="32" fill="black">
<rect fill="white" width="32" height="32"/>
<path d="M2 8.6508L7.82838 14.4261C8.39763 14.9895 9.16938 15.306 9.97407 15.306C10.7787 15.306 11.5505 14.9895 12.1198 14.4261C12.1414 14.4041 12.1672 14.3866 12.1957 14.3746C12.2243 14.3627 12.255 14.3565 12.2859 14.3565C12.3169 14.3565 12.3476 14.3627 12.3761 14.3746C12.4047 14.3866 12.4305 14.4041 12.4521 14.4261L26.4698 29.0977C26.657 29.2949 26.8824 29.4528 27.1325 29.562C27.3826 29.6711 27.6523 29.7293 27.9255 29.7331C28.1988 29.7368 28.47 29.6861 28.7231 29.5839C28.9762 29.4817 29.2059 29.3301 29.3986 29.1381C29.5925 28.9473 29.7456 28.7197 29.8489 28.4691C29.9522 28.2184 30.0035 27.9497 29.9998 27.679C29.9961 27.4083 29.9375 27.1411 29.8274 26.8933C29.7174 26.6455 29.5581 26.4221 29.3591 26.2366L14.5494 12.3547C14.5272 12.3333 14.5095 12.3077 14.4975 12.2794C14.4854 12.2511 14.4792 12.2207 14.4792 12.19C14.4792 12.1593 14.4854 12.1289 14.4975 12.1007C14.5095 12.0724 14.5272 12.0468 14.5494 12.0254C15.1182 11.4615 15.4376 10.6969 15.4376 9.89972C15.4376 9.10254 15.1182 8.33797 14.5494 7.77403L8.71976 2"/>
</mask>
<path d="M3.40773 7.23013C2.62312 6.45266 1.3568 6.45846 0.579332 7.24307C-0.198136 8.02768 -0.192343 9.294 0.592271 10.0715L3.40773 7.23013ZM7.82838 14.4261L6.42065 15.8468L6.42143 15.8475L7.82838 14.4261ZM12.1198 14.4261L13.5267 15.8475L13.5371 15.8373L13.5473 15.8269L12.1198 14.4261ZM12.4521 14.4261L13.8982 13.0445L13.889 13.0348L13.8796 13.0253L12.4521 14.4261ZM26.4698 29.0977L27.9202 27.7206L27.9158 27.7161L26.4698 29.0977ZM29.3591 26.2366L27.9913 27.6957L27.995 27.6992L29.3591 26.2366ZM14.5494 12.3547L13.1621 13.7952L13.1718 13.8046L13.1816 13.8138L14.5494 12.3547ZM14.5494 7.77403L15.9576 6.35383L15.9568 6.35306L14.5494 7.77403ZM10.1272 0.579024C9.3424 -0.198272 8.07608 -0.192202 7.29879 0.592581C6.52149 1.37736 6.52756 2.64368 7.31235 3.42098L10.1272 0.579024ZM0.592271 10.0715L6.42065 15.8468L9.23611 13.0054L3.40773 7.23013L0.592271 10.0715ZM6.42143 15.8475C7.36711 16.7836 8.64528 17.306 9.97407 17.306V13.306C9.69349 13.306 9.42814 13.1955 9.23533 13.0047L6.42143 15.8475ZM9.97407 17.306C11.3028 17.306 12.581 16.7836 13.5267 15.8475L10.7128 13.0047C10.52 13.1955 10.2546 13.306 9.97407 13.306V17.306ZM13.5473 15.8269C13.3817 15.9956 13.1846 16.1289 12.968 16.2195L11.4235 12.5297C11.1498 12.6443 10.901 12.8126 10.6922 13.0253L13.5473 15.8269ZM12.968 16.2195C12.7515 16.3102 12.5196 16.3565 12.2859 16.3565V12.3565C11.9903 12.3565 11.6971 12.4152 11.4235 12.5297L12.968 16.2195ZM12.2859 16.3565C12.0522 16.3565 11.8203 16.3101 11.6039 16.2195L13.1484 12.5297C12.8748 12.4152 12.5816 12.3565 12.2859 12.3565V16.3565ZM11.6039 16.2195C11.3875 16.1289 11.1903 15.9957 11.0246 15.8269L13.8796 13.0253C13.6707 12.8124 13.4219 12.6442 13.1484 12.5297L11.6039 16.2195ZM11.006 15.8077L25.0237 30.4793L27.9158 27.7161L13.8982 13.0445L11.006 15.8077ZM25.0194 30.4748C25.3914 30.8666 25.8381 31.1792 26.3325 31.395L27.9325 27.7289C27.9266 27.7264 27.9226 27.7232 27.9202 27.7207L25.0194 30.4748ZM26.3325 31.395C26.8268 31.6107 27.3591 31.7255 27.898 31.7329L27.9531 27.7333C27.9455 27.7332 27.9384 27.7315 27.9325 27.7289L26.3325 31.395ZM27.898 31.7329C28.4368 31.7403 28.9721 31.6403 29.4721 31.4383L27.9741 27.7294C27.968 27.7319 27.9608 27.7334 27.9531 27.7333L27.898 31.7329ZM29.4721 31.4383C29.9722 31.2363 30.4274 30.9363 30.8101 30.555L27.9871 27.7212C27.9844 27.7239 27.9802 27.727 27.9741 27.7294L29.4721 31.4383ZM30.8016 30.5634C31.1867 30.1844 31.4918 29.7315 31.698 29.2311L27.9997 27.7071C27.9993 27.708 27.9983 27.7101 27.9956 27.7127L30.8016 30.5634ZM31.698 29.2311C31.9043 28.7306 32.007 28.1935 31.9996 27.6518L28 27.7062L27.9997 27.7071L31.698 29.2311ZM31.9996 27.6518C31.9923 27.1102 31.875 26.5761 31.6553 26.0814L27.9996 27.7051C28.0001 27.7061 28 27.7064 28 27.7062L31.9996 27.6518ZM31.6553 26.0814C31.4356 25.5868 31.1182 25.1424 30.7232 24.7739L27.995 27.6992C27.998 27.7019 27.9992 27.7041 27.9996 27.7051L31.6553 26.0814ZM30.7269 24.7774L15.9172 10.8955L13.1816 13.8138L27.9914 27.6957L30.7269 24.7774ZM15.9368 10.9141C16.1072 11.0782 16.2436 11.2755 16.3371 11.4948L12.6578 13.064C12.7754 13.3398 12.9472 13.5883 13.1621 13.7952L15.9368 10.9141ZM16.3371 11.4948C16.4306 11.714 16.4792 11.9504 16.4792 12.19H12.4792C12.4792 12.491 12.5402 12.7883 12.6578 13.064L16.3371 11.4948ZM16.4792 12.19C16.4792 12.4296 16.4306 12.6661 16.3371 12.8853L12.6578 11.316C12.5402 11.5918 12.4792 11.889 12.4792 12.19H16.4792ZM16.3371 12.8853C16.2436 13.1045 16.1072 13.3018 15.9368 13.466L13.1621 10.5848C12.9472 10.7917 12.7754 11.0402 12.6578 11.316L16.3371 12.8853ZM15.9576 13.4456C16.9031 12.5081 17.4376 11.2331 17.4376 9.89972H13.4376C13.4376 10.1607 13.3332 10.4148 13.1412 10.6052L15.9576 13.4456ZM17.4376 9.89972C17.4376 8.56634 16.9031 7.29132 15.9576 6.35383L13.1412 9.19423C13.3332 9.38462 13.4376 9.63874 13.4376 9.89972H17.4376ZM15.9568 6.35306L10.1272 0.579024L7.31235 3.42098L13.142 9.19501L15.9568 6.35306Z" fill="#BD2F38" mask="url(#path-5-outside-3_230_11443)"/>
<path d="M4 6.21875L7.1 9.28985" stroke="#BD2F38" stroke-width="2" stroke-miterlimit="10" stroke-linecap="round"/>
<path d="M6.23438 4L9.33437 7.0711" stroke="#BD2F38" stroke-width="2" stroke-miterlimit="10" stroke-linecap="round"/>
</svg>
